Coordinates
version=1
nRows=16
nColumns=36
inDegrees=yes

Units are S.I. units (second, meters, Newtons, ...)
If the header above contains a line with 'inDegrees', this indicates whether rotational values are in degrees (yes) or radians (no).

endheader
time	pelvis_tilt	pelvis_list	pelvis_rotation	pelvis_tx	pelvis_ty	pelvis_tz	hip_flexion_r	hip_adduction_r	hip_rotation_r	knee_angle_r	knee_angle_r_beta	ankle_angle_r	subtalar_angle_r	mtp_angle_r	hip_flexion_l	hip_adduction_l	hip_rotation_l	knee_angle_l	knee_angle_l_beta	ankle_angle_l	subtalar_angle_l	mtp_angle_l	lumbar_extension	lumbar_bending	lumbar_rotation	arm_flex_r	arm_add_r	arm_rot_r	elbow_flex_r	pro_sup_r	arm_flex_l	arm_add_l	arm_rot_l	elbow_flex_l	pro_sup_l
      4.51666670	     -2.25427944	      0.17841293	      1.34737202	      0.35273473	      0.95248305	     -0.07750078	     14.19695233	     -2.23559014	      0.60059182	     23.46374662	      0.40951963	      8.21853430	    -15.97748219	     -7.49999987	     17.74026543	     -4.10480177	      1.23978154	     30.47694211	      0.53192299	      9.35528955	      1.33348896	     -7.49999987	    -19.86405196	      3.32626686	     -0.95656007	     35.88652354	     -9.21983544	     16.07276051	     80.54145472	     75.36146655	     44.65705679	     -8.42710705	     19.44842394	     81.86278995	     47.57971393
      4.52083330	     -2.49793654	      0.26745795	      1.27999490	      0.35345226	      0.95656034	     -0.07852943	     13.81192429	     -2.33877475	      0.74308515	     22.21452357	      0.38771658	      7.34803494	    -15.74431218	     -7.49999987	     17.33311567	     -3.83516851	      1.27147674	     29.31570296	      0.51165554	      8.48730501	      0.97731709	     -7.49999987	    -19.34718031	      3.30634188	     -1.08707996	     35.21353717	     -8.88546299	     15.88882658	     79.97322347	     75.68045789	     43.85942046	     -8.67429012	     19.52395581	     82.32238625	     47.21071318
      4.52500000	     -2.59720800	      0.35347007	      1.15955168	      0.35517029	      0.95706921	     -0.07765626	     13.27573111	     -2.44515647	      0.72789927	     21.15589962	      0.36924010	      6.93102327	    -15.35640471	     -7.49999987	     16.84387389	     -3.66522620	      1.29386316	     28.31616393	      0.49421029	      7.87444168	      0.89934381	     -7.49999987	    -18.95121813	      3.26643635	     -1.10077896	     34.54697624	     -8.86831357	     15.87096288	     79.72887040	     75.73015916	     43.06439801	     -8.76170273	     19.59154387	     82.66325247	     47.14535150
      4.52916670	     -2.92340933	      0.41669495	      1.03405823	      0.35617938	      0.95700646	     -0.07761052	     13.07667681	     -2.49453725	      0.86161577	     20.26831580	      0.35374884	      6.38159391	    -15.40701094	     -7.49999987	     16.64792182	     -3.54496384	      1.21514429	     27.41765772	      0.47852840	      7.59065752	      1.00825497	     -7.49999987	    -18.22990560	      3.24353488	     -1.01342043	     33.74529838	     -8.95353521	     15.91377640	     79.51706863	     75.76439656	     42.19927178	     -8.78224816	     19.73200228	     82.78687152	     47.14389612
      4.53333330	     -2.94217860	      0.54302628	      0.95531872	      0.35680632	      0.96049082	     -0.07882010	     12.45348455	     -2.70973222	      0.65719712	     19.24657305	      0.33591607	      6.34683438	    -14.55650642	     -7.49999987	     15.96927398	     -3.32092270	      1.35627068	     26.37115173	      0.46026343	      6.99723515	      0.54688094	     -7.49999987	    -17.94938992	      3.15590421	     -1.11937461	     33.11279980	     -8.84585052	     15.68218974	     79.16628315	     75.96060765	     41.30682651	     -8.96952410	     19.77919263	     83.47199948	     46.97751438
      4.53750000	     -3.17466275	      0.57444144	      0.74382383	      0.35715669	      0.96024260	     -0.07854000	     12.24609920	     -2.71491197	      0.84711732	     18.45462436	      0.32209396	      6.05298409	    -14.46195648	     -7.49999987	     15.71856145	     -3.20664457	      1.38994611	     25.55857992	      0.44608137	      6.90853900	      0.66153491	     -7.49999987	    -17.31496457	      3.13379331	     -1.05836379	     32.36125243	     -8.90767943	     15.74966802	     78.95382203	     75.98518500	     40.47346889	     -9.00336628	     19.92382845	     83.49502376	     46.98436400
      4.54166670	     -3.44013245	      0.69771408	      0.52512277	      0.35773304	      0.96546410	     -0.07917549	     11.93248718	     -2.85917388	      0.90457890	     17.38897615	      0.30349489	      5.71427984	    -13.83496616	     -7.49999987	     15.44578402	     -3.03860848	      1.17326111	     24.67895828	      0.43072908	      6.37408594	      0.72349416	     -7.49999987	    -16.81310503	      2.96326434	     -0.96024088	     31.79925545	     -8.96868344	     15.73789324	     78.66551509	     76.00900576	     39.76765824	     -9.06458299	     20.06198994	     83.60188717	     46.97155554
      4.54583330	     -3.34899426	      0.78133828	      0.31006943	      0.35757248	      0.96473609	     -0.07921137	     11.39392897	     -2.97992804	      0.84567203	     16.57232026	      0.28924155	      5.72299417	    -12.72072936	     -7.49999987	     14.80837653	     -2.88922277	      1.19816947	     23.72270524	      0.41403931	      5.69620646	      0.42191468	     -7.49999987	    -16.65853365	      2.86609694	     -0.92198056	     31.41146080	     -8.81513472	     15.46329324	     77.99655450	     75.42078490	     39.06163047	     -9.03089649	     19.97972526	     83.84222741	     47.47982946
      4.55000000	     -3.44933108	      0.94833831	      0.15713671	      0.35790945	      0.96770679	     -0.07920911	     10.97416961	     -3.21116268	      0.60361752	     15.65466253	      0.27322540	      5.78352964	    -11.57359917	     -7.49999987	     14.43615654	     -2.61971095	      1.31475139	     22.85751622	      0.39893892	      5.05748094	      0.17098530	     -7.49999987	    -16.31050030	      2.71045382	     -1.09648172	     31.05549002	     -8.64813870	     15.45745191	     77.36198772	     75.56328183	     38.18892771	     -9.29086820	     19.88463647	     84.20484947	     47.45150274
      4.55416670	     -3.58364237	      1.08780174	     -0.05188482	      0.35914915	      0.96836950	     -0.07793926	     10.59427008	     -3.31570920	      0.59216976	     14.73104505	      0.25710524	      5.53098237	    -11.20864454	     -7.49999987	     14.08941166	     -2.48333473	      1.24674812	     22.03624830	      0.38460509	      4.58499639	      0.20506221	     -7.49999987	    -15.89746581	      2.45572486	     -1.08656983	     30.51820685	     -8.64056095	     15.42790832	     77.04640039	     75.59973193	     37.60863264	     -9.41195232	     19.97691798	     84.27589019	     47.47202144
      4.55833330	     -3.73674599	      1.20523584	     -0.22962423	      0.35839169	      0.96983413	     -0.07811255	     10.32236761	     -3.43760263	      0.46781840	     13.88129038	      0.24227422	      5.32796317	    -10.73839422	     -7.49999987	     13.82616120	     -2.34126203	      1.23318570	     21.26525920	      0.37114879	      4.19739313	      0.07679658	     -7.49999987	    -15.57925709	      2.36256860	     -0.97311999	     30.02495451	     -8.76334331	     15.44861395	     76.93137348	     75.11384508	     36.97799205	     -9.45720752	     20.14396964	     84.35828232	     47.95250501
      4.56250000	     -3.86327945	      1.24928551	     -0.34252624	      0.35900240	      0.96815774	     -0.07788349	     10.06909068	     -3.49307895	      0.27046038	     13.12857515	      0.22913686	      5.10650874	    -10.38576657	     -7.49999987	     13.52733744	     -2.26523028	      1.28657676	     20.52292875	      0.35819268	      4.01673517	      0.07373431	     -7.49999987	    -15.21685226	      2.28849960	     -0.86082824	     29.60418040	     -8.95710496	     15.50603673	     76.78858841	     74.64069537	     36.32290816	     -9.41329634	     20.43477690	     84.48519913	     48.41201609
      4.56666670	     -4.03911504	      1.34838246	     -0.43817273	      0.35946025	      0.97014998	     -0.07796496	      9.83939699	     -3.59198381	      0.09929404	     12.35012000	      0.21555026	      4.81101806	    -10.06689578	     -7.49999987	     13.22254321	     -2.12351621	      1.33815619	     19.67243798	      0.34334881	      3.78643030	      0.17837275	     -7.49999987	    -14.78590222	      2.25519967	     -0.74018795	     29.09046318	     -9.13296280	     15.60160408	     76.61776957	     74.39985374	     35.68705222	     -9.37846768	     20.66417993	     84.47237125	     48.66139269
      4.57083330	     -4.03574472	      1.36923356	     -0.53277665	      0.36147375	      0.97266905	     -0.07813433	      9.37764940	     -3.57686291	      0.01230792	     11.44880535	      0.19981935	      4.54166243	     -9.63100944	     -7.49999987	     12.60251448	     -2.07907838	      1.37541699	     18.68631327	      0.32613769	      3.47734339	      0.12847616	     -7.49999987	    -14.48639504	      2.25578462	     -0.62507294	     28.60296184	     -9.34083117	     15.85413027	     76.33389289	     74.26109203	     35.11357751	     -9.38351171	     20.95252018	     84.35231819	     48.86797473
      4.57500000	     -4.17910894	      1.30314186	     -0.59245661	      0.36069020	      0.97080820	     -0.07583084	      9.13458981	     -3.40843503	     -0.03482288	     10.70480133	      0.18683403	      4.21985861	     -9.71739152	     -7.49999987	     12.24309465	     -2.14885996	      1.43049256	     17.85885428	      0.31169581	      3.29973281	      0.11887150	     -7.49999987	    -14.03099950	      2.28468589	     -0.46065736	     28.09101383	     -9.47461130	     16.02849127	     76.00149542	     74.10786463	     34.65336264	     -9.41814870	     21.19776338	     84.21261504	     49.07419204
      4.57916670	     -4.11298491	      1.24986633	     -0.68323015	      0.35999205	      0.97284804	     -0.07796719	      8.70242728	     -3.33044080	     -0.23487179	     10.07012754	      0.17575688	      4.06770768	     -9.57449059	     -7.49999987	     11.65528665	     -2.13013575	      1.54606367	     16.99650857	      0.29664504	      3.09986511	     -0.04667979	     -7.49999987	    -13.94735914	      2.36960259	     -0.33711260	     27.86926367	     -9.73221706	     16.21295934	     75.54967939	     74.25299363	     34.38050601	     -9.53751404	     21.61327835	     84.13123867	     49.09584928
